<svg xmlns="http://www.w3.org/2000/svg" viewBox="0 0 192 192">
  <rect width="192" height="192" rx="44" fill="#111827"/>
  <rect x="24" y="24" width="144" height="144" rx="32" fill="#fff7ed"/>
  <path d="M97 40c0 14 8 22 22 22-14 0-22 8-22 22 0-14-8-22-22-22 14 0 22-8 22-22Z" fill="#f97316"/>
  <path d="M66 94c0 19 11 30 30 30-19 0-30 11-30 30 0-19-11-30-30-30 19 0 30-11 30-30Z" fill="#fdba74"/>
  <path d="M129 98c0 13 8 20 20 20-12 0-20 8-20 20 0-12-8-20-20-20 12 0 20-7 20-20Z" fill="#fb923c"/>
</svg>
