<svg width="128" height="128" viewBox="0 0 128 128" fill="none" xmlns="http://www.w3.org/2000/svg">
  <circle cx="64" cy="64" r="60" fill="#FF7A10"/>
  <circle cx="64" cy="64" r="50" fill="url(#glow)"/>
  <path d="M64 29C69.2 35.4 73 43.6 73 50.8C73 61.4 68.1 68.5 64 72.5C59.9 68.5 55 61.4 55 50.8C55 43.6 58.8 35.4 64 29Z" fill="#FFF8ED"/>
  <path d="M44 78C49.1 73.7 56.1 71 64 71C71.9 71 78.9 73.7 84 78V83H44V78Z" fill="#FFF8ED"/>
  <path d="M37 88H91C87.1 96.4 76.6 102 64 102C51.4 102 40.9 96.4 37 88Z" fill="#2A201B"/>
  <path d="M48 86C51.8 89.6 57.6 92 64 92C70.4 92 76.2 89.6 80 86H48Z" fill="#FFB97A"/>
  <defs>
    <radialGradient id="glow" cx="0" cy="0" r="1" gradientUnits="userSpaceOnUse" gradientTransform="translate(64 64) rotate(90) scale(56)">
      <stop offset="0.55" stop-color="#FF7A10"/>
      <stop offset="1" stop-color="#FF8E2F"/>
    </radialGradient>
  </defs>
</svg>
